<?xml version="1.0" ?><svg height="564.44446mm" id="svg2" version="1.1" viewBox="0 0 2000 2000" width="564.44446mm" xmlns="http://www.w3.org/2000/svg" xmlns:cc="http://creativecommons.org/ns#" xmlns:dc="http://purl.org/dc/elements/1.1/" xmlns:inkscape="http://www.inkscape.org/namespaces/inkscape" xmlns:rdf="http://www.w3.org/1999/02/22-rdf-syntax-ns#" xmlns:sodipodi="http://sodipodi.sourceforge.net/DTD/sodipodi-0.dtd" xmlns:svg="http://www.w3.org/2000/svg"><defs id="defs4"/><g id="layer1" transform="translate(9790.998,5341.915)"><g id="g4671" transform="matrix(1.1308188,0,0,1.1308188,-17119.719,-9437.3687)"><path d="m 11912.848,338.57227 c -105.182,0 -191.422,86.23712 -191.422,191.41992 l 0,905.73051 c 0,105.1828 86.24,191.4199 191.422,191.4199 l 87.705,0 0,146.584 a 50.005,50.005 0 0 0 75.052,43.2714 l 327.93,-189.8554 723.613,0 c 105.182,0 191.424,-86.2371 191.424,-191.4199 l 0,-905.73051 c 0,-105.1828 -86.242,-191.41992 -191.424,-191.41992 l -1214.3,0 z m 0,100 1214.3,0 c 51.513,0 91.424,39.90802 91.424,91.41992 l 0,905.73051 c 0,51.5117 -39.911,91.4199 -91.424,91.4199 l -737.043,0 a 50.005,50.005 0 0 0 -25.05,6.7285 l -264.502,153.1328 0,-109.8613 a 50.005,50.005 0 0 0 -50,-50 l -137.705,0 c -51.513,0 -91.422,-39.9082 -91.422,-91.4199 l 0,-905.73051 c 0,-51.5118 39.909,-91.41992 91.422,-91.41992 z m 574.629,113.42578 c -1.897,-0.008 -3.81,0.0344 -5.737,0.12695 l 0,-0.004 c -15.567,0.7473 -30.879,4.82576 -45.011,12.41016 -14.162,7.5999 -25.42,17.79638 -34.262,28.89648 -8.816,11.0667 -14.066,21.28812 -18.11,28.94922 l -148.787,281.91016 -112.709,0 a 50.005,50.005 0 0 0 -49.994,49.26367 l -5.713,388.57221 a 50.005,50.005 0 0 0 49.993,50.7344 l 357.144,0 a 50.005,50.005 0 1 0 0,-100 l -164.289,0 0,-309.99997 a 50.005,50.005 0 0 0 -0.182,-5.03125 50.005,50.005 0 0 0 0.118,-0.20117 l 162.857,-308.57227 c 3.689,-6.9906 6.381,-11.4236 7.889,-13.3164 1.48,-1.858 2.896,-2.85515 3.334,-3.08985 0.466,-0.2504 1.537,-0.59157 2.519,-0.63867 1.132,-0.054 3.319,0.15522 5.934,1.04492 4.491,1.5281 9.105,4.7285 12.109,8.40039 2.589,3.16461 4.529,7.42359 5.424,11.55469 l 0,198.42383 a 50.005,50.005 0 0 0 50,50 l 300.205,0 c 0.731,3.0187 1.341,6.06189 1.816,9.11719 4.015,25.7975 -0.987,56.83844 -10.234,90.49416 -7.25,26.3905 -20.135,60.9725 -15.824,103.9492 2.011,20.0477 6.945,35.1643 9.525,46.1621 2.538,10.8195 2.812,17.8804 2.393,20.2969 -0.347,1.9972 -2.155,7.0264 -6.385,14.0058 -4.295,7.0876 -11.111,16.2886 -18.617,28.7559 -16.422,27.2758 -24.604,45.9402 -31.045,51.875 -4.075,3.7542 -10.724,6.4993 -16.291,6.7715 l -106.971,0 a 50.005,50.005 0 1 0 0,100 l 108.571,0 a 50.005,50.005 0 0 0 1.837,-0.033 c 30.124,-1.1073 58.443,-12.7703 80.612,-33.1953 30.261,-27.8812 39.639,-58.3583 48.959,-73.8379 4.224,-7.0167 10.974,-16.144 18.467,-28.5059 7.557,-12.47 15.848,-28.324 19.39,-48.7344 4.216,-24.2899 0.09,-44.6664 -3.562,-60.2363 -3.611,-15.3915 -6.689,-26.382 -7.383,-33.3047 -1.508,-15.0297 4.556,-37.6526 12.75,-67.4765 10.688,-38.9047 20.178,-83.80682 12.621,-132.36331 -3.658,-23.5022 -11.237,-46.23407 -22.412,-67.23047 a 50.005,50.005 0 0 0 -44.139,-26.50782 l -284.283,0 0,-152.85742 a 50.005,50.005 0 0 0 -0.412,-6.41211 c -3.05,-23.5841 -12.558,-45.628 -27.617,-64.0332 -15.059,-18.4049 -34.782,-32.08855 -57.295,-39.74805 -11.437,-3.89095 -23.929,-6.33148 -37.201,-6.38476 z m -315.346,452.28905 37.869,0 0,288.5703 -42.113,0 4.244,-288.5703 z" id="path4172" style="color:#000000;font-style:normal;font-variant:normal;font-weight:normal;font-stretch:normal;font-size:medium;line-height:normal;font-family:sans-serif;text-indent:0;text-align:start;text-decoration:none;text-decoration-line:none;text-decoration-style:solid;text-decoration-color:#000000;letter-spacing:normal;word-spacing:normal;text-transform:none;direction:ltr;block-progression:tb;writing-mode:lr-tb;baseline-shift:baseline;text-anchor:start;white-space:normal;clip-rule:nonzero;display:inline;overflow:visible;visibility:visible;opacity:1;isolation:auto;mix-blend-mode:normal;color-interpolation:sRGB;color-interpolation-filters:linearRGB;solid-color:#000000;solid-opacity:1;fill:#6c6da7;fill-opacity:1;fill-rule:nonzero;stroke:none;stroke-width:100;stroke-linecap:round;stroke-linejoin:round;stroke-miterlimit:4;stroke-dasharray:none;stroke-dashoffset:0;stroke-opacity:1;color-rendering:auto;image-rendering:auto;shape-rendering:auto;text-rendering:auto;enable-background:accumulate" transform="translate(-5154.7861,3424.8384)"/><path d="m 12486.535,652.00781 c -0.982,0.0471 -2.053,0.38827 -2.519,0.63867 -0.438,0.2347 -1.854,1.23185 -3.334,3.08985 -1.508,1.8928 -4.2,6.3258 -7.889,13.3164 L 12309.936,977.625 a 50.005,50.005 0 0 1 -0.118,0.20117 50.005,50.005 0 0 1 0.182,5.03125 l 0,309.99998 164.289,0 a 50.005,50.005 0 0 1 50.66,48.5235 l 92.996,0 a 50.005,50.005 0 0 1 50.629,-48.5215 l 106.971,0 c 5.567,-0.2722 12.216,-3.0173 16.291,-6.7715 6.441,-5.9348 14.623,-24.5992 31.045,-51.875 7.506,-12.4673 14.322,-21.6683 18.617,-28.7559 4.23,-6.9794 6.038,-12.0086 6.385,-14.0058 0.419,-2.4165 0.145,-9.4774 -2.393,-20.2969 -2.58,-10.9978 -7.514,-26.1144 -9.525,-46.1621 -4.311,-42.9767 8.574,-77.5587 15.824,-103.9492 9.247,-33.65576 14.249,-64.69667 10.234,-90.49417 -0.475,-3.0553 -1.085,-6.09849 -1.816,-9.11719 l -300.205,0 a 50.005,50.005 0 0 1 -50,-50 l 0,-198.42383 c -0.895,-4.1311 -2.835,-8.39007 -5.424,-11.55469 -3.004,-3.67188 -7.618,-6.87229 -12.109,-8.40039 -2.615,-0.8897 -4.802,-1.09892 -5.934,-1.04492 z" id="path4488" style="fill:#00bafd;fill-opacity:1;fill-rule:evenodd;stroke:none;stroke-width:1px;stroke-linecap:butt;stroke-linejoin:miter;stroke-opacity:1" transform="translate(-5154.7861,3424.8384)"/></g></g></svg>